:FULLY-SPECIFIED
:FORCE-ALL-JOINTS-BE-3DOF
:DEGREES
612
root -4.43777 15.5938 -40.5205 -3.0997 -75.5237 10.2065
lfemur -8.31003 13.2266 -16.507
ltibia 44.0566 -0 0
lfoot -22.0892 29.9008 0.00104974
ltoes -24.0581 0 0
rfemur -41.3748 -32.2725 18.3402
rtibia 78.9641 -0 0
rfoot -15.1924 -19.3029 0.0562842
rtoes -3.32803 0 0
lowerback 10.4373 4.95535 -6.63785
upperback -2.80987 5.56941 -1.35284
thorax -9.3946 3.00515 1.21772
lowerneck 1.2751 -10.7143 -11.8674
upperneck -0.743386 -14.5388 11.6115
head 1.30112 -7.29974 5.03346
lclavicle -6.31141e-14 1.98785e-15 0
lhumerus -72.1507 -23.9695 105.224
lradius 102.263 -0 0
lwrist 56.092 0 0
lhand 7.82384 56.9072 6.75841e-06
lfingers 7.12502 -0 0
lthumb 33.0596 83.8948 6.37453e-06
rclavicle -6.31141e-14 1.98785e-15 0
rhumerus 26.9514 17.2776 -46.8371
rradius 98.6809 -0 0
rwrist -29.2372 0 0
rhand -25.1152 -35.2284 -0.00632723
rfingers 7.12502 -0 0
rthumb 1.40015 -65.1949 -0.00505732
613
root -4.37684 15.6191 -40.4796 -2.92942 -75.605 10.0833
lfemur -8.45061 13.2641 -16.6188
ltibia 44.0803 -0 0
lfoot -22.0716 29.9349 0.000607796
ltoes -24.1036 0 0
rfemur -41.2103 -32.4112 18.4809
rtibia 79.1275 -0 0
rfoot -15.306 -19.5832 0.032582
rtoes -3.26937 0 0
lowerback 10.384 4.96808 -6.66061
upperback -2.8395 5.5848 -1.37374
thorax -9.39791 3.01404 1.2068
lowerneck 1.251 -10.7054 -11.8663
upperneck -0.704632 -14.5274 11.6325
head 1.31668 -7.29358 5.03704
lclavicle -6.31141e-14 1.98785e-15 0
lhumerus -72.1624 -24.0122 105.238
lradius 102.255 -0 0
lwrist 56.0359 0 0
lhand 7.82349 56.896 3.91309e-06
lfingers 7.12502 -0 0
lthumb 33.0592 83.8837 3.69083e-06
rclavicle -6.31141e-14 1.98785e-15 0
rhumerus 27.1 17.2983 -46.8426
rradius 99.4671 -0 0
rwrist -29.6591 0 0
rhand -25.2545 -35.2023 -0.00366329
rfingers 7.12502 -0 0
rthumb 1.26573 -65.1733 -0.00292805
614
root -4.31591 15.6445 -40.4388 -2.80353 -75.6645 9.99202
lfemur -8.55374 13.2915 -16.7008
ltibia 44.0977 -0 0
lfoot -22.0586 29.96 0.000277084
ltoes -24.1369 0 0
rfemur -41.0898 -32.5132 18.5839
rtibia 79.2473 -0 0
rfoot -15.3892 -19.7886 0.0148514
rtoes -3.22636 0 0
lowerback 10.345 4.97739 -6.6773
upperback -2.86123 5.59608 -1.38907
thorax -9.40034 3.02055 1.1988
lowerneck 1.23333 -10.6989 -11.8654
upperneck -0.676218 -14.519 11.648
head 1.32809 -7.28907 5.03967
lclavicle -6.31141e-14 1.98785e-15 0
lhumerus -72.1709 -24.0435 105.248
lradius 102.249 -0 0
lwrist 55.9947 0 0
lhand 7.82324 56.8877 1.78392e-06
lfingers 7.12502 -0 0
lthumb 33.059 83.8755 1.68259e-06
rclavicle -6.31141e-14 1.98785e-15 0
rhumerus 27.2089 17.3135 -46.8466
rradius 100.043 -0 0
rwrist -29.9684 0 0
rhand -25.3566 -35.1832 -0.00166999
rfingers 7.12502 -0 0
rthumb 1.16717 -65.1575 -0.00133482
615
root -4.25497 15.6698 -40.3979 -2.72563 -75.7011 9.93538
lfemur -8.61722 13.3083 -16.7513
ltibia 44.1084 -0 0
lfoot -22.0506 29.9754 7.08005e-05
ltoes -24.1574 0 0
rfemur -41.0157 -32.576 18.6471
rtibia 79.321 -0 0
rfoot -15.4404 -19.915 0.00379449
rtoes -3.1999 0 0
lowerback 10.321 4.98312 -6.68758
upperback -2.8746 5.60302 -1.3985
thorax -9.40184 3.02456 1.19388
lowerneck 1.22246 -10.695 -11.8649
upperneck -0.658736 -14.5139 11.6575
head 1.33511 -7.28629 5.04128
lclavicle -6.31141e-14 1.98785e-15 0
lhumerus -72.1762 -24.0627 105.254
lradius 102.245 -0 0
lwrist 55.9693 0 0
lhand 7.82307 56.8821 3.05318e-07
lfingers 7.12502 -0 0
lthumb 33.0588 83.8699 2.87976e-07
rclavicle -6.31141e-14 1.98785e-15 0
rhumerus 27.2759 17.3228 -46.8491
rradius 100.398 -0 0
rwrist -30.1587 0 0
rhand -25.4194 -35.1715 -0.000426706
rfingers 7.12502 -0 0
rthumb 1.10654 -65.1478 -0.000341066
616
root -4.19404 15.6951 -40.3571 357.301 -75.7136 369.916
lfemur -8.63886 13.314 -16.7685
ltibia 44.112 0 0
lfoot -22.0479 29.9806 0
ltoes -24.1644 0 0
rfemur -40.9905 -32.5974 18.6687
rtibia 79.3461 0 0
rfoot -15.4578 -19.9581 0
rtoes -3.19088 0 0
lowerback 10.3128 4.98507 -6.69108
upperback -2.87916 5.60538 -1.40172
thorax -9.40235 3.02593 1.1922
lowerneck 1.21875 -10.6936 -11.8647
upperneck -0.652777 -14.5121 11.6607
head 1.3375 -7.28534 5.04183
lclavicle -6.31141e-14 1.98785e-15 0
lhumerus -72.178 -24.0693 105.256
lradius 102.244 0 0
lwrist 55.9607 0 0
lhand 7.82303 56.8809 0
lfingers 7.12502 0 0
lthumb 33.0588 83.8687 0
rclavicle -6.31141e-14 1.98785e-15 0
rhumerus 27.2987 17.326 -46.8499
rradius 100.519 0 0
rwrist -30.2236 0 0
rhand -25.4408 -35.1675 0
rfingers 7.12502 0 0
rthumb 1.08587 -65.1445 0
617
root -4.25538 15.6883 -40.337 -2.62336 -75.7482 9.83234
lfemur -8.74157 13.3108 -16.7693
ltibia 44.1712 -0 0
lfoot -22.0223 29.9241 -0.00739547
ltoes -24.1455 0 0
rfemur -40.932 -32.5768 18.6755
rtibia 79.2977 -0 0
rfoot -15.4746 -19.9766 0.00155045
rtoes -3.21707 0 0
lowerback 10.3227 4.98073 -6.66887
upperback -2.87721 5.60268 -1.39194
thorax -9.40475 3.02354 1.19057
lowerneck 1.21267 -10.6801 -11.8532
upperneck -0.647869 -14.4935 11.6499
head 1.33715 -7.27582 5.03786
lclavicle -3.66121e-15 -3.6595e-14 0
lhumerus -72.0155 -24.1125 105.223
lradius 102.21 -0 0
lwrist 55.8634 0 0
lhand 7.80731 56.8244 0.00453604
lfingers 7.12502 -0 0
lthumb 33.0437 83.8148 0.00413184
rclavicle -3.66121e-15 -3.6595e-14 0
rhumerus 27.2969 17.3365 -46.8837
rradius 100.541 -0 0
rwrist -30.2504 0 0
rhand -25.3799 -35.1217 0.0145462
rfingers 7.12502 -0 0
rthumb 1.14404 -65.0928 0.015749
